<?xml version="1.0" encoding="iso-8859-1"?>
<!-- Uploaded to: SVG Repo, www.svgrepo.com, Generator: SVG Repo Mixer Tools -->
<svg version="1.1" id="Capa_1" xmlns="http://www.w3.org/2000/svg" xmlns:xlink="http://www.w3.org/1999/xlink" 
	 viewBox="0 0 26 26" xml:space="preserve">
<g>
	<path style="fill:#030104;stroke:#030104;stroke-width:2;stroke-linecap:round;stroke-linejoin:round;stroke-miterlimit:10;" d="
		M18.5,1L13,5v20h11V5L18.5,1z M18,9h-4V5h4V9z M23,9h-4V5h4V9z M18,14h-4v-4h4V14z M23,14h-4v-4h4V14z M18,19h-4v-4h4V19z M23,19
		h-4v-4h4V19z M18,24h-4v-4h4V24z M23,24h-4v-4h4V24z"/>
	<path style="fill:#030104;stroke:#030104;stroke-width:2;stroke-linecap:round;stroke-linejoin:round;stroke-miterlimit:10;" d="
		M7.5,1L2,5v20h11V5L7.5,1z M7,9H3V5h4V9z M12,9H8V5h4V9z M7,14H3v-4h4V14z M12,14H8v-4h4V14z M7,19H3v-4h4V19z M12,19H8v-4h4V19z
		 M7,24H3v-4h4V24z M12,24H8v-4h4V24z"/>
</g>
</svg>