<?xml version="1.0" encoding="UTF-8" standalone="no"?>
<!-- Created with Inkscape (http://www.inkscape.org/) -->
<svg
   xmlns:dc="http://purl.org/dc/elements/1.1/"
   xmlns:cc="http://web.resource.org/cc/"
   xmlns:rdf="http://www.w3.org/1999/02/22-rdf-syntax-ns#"
   xmlns:svg="http://www.w3.org/2000/svg"
   xmlns="http://www.w3.org/2000/svg"
   xmlns:sodipodi="http://sodipodi.sourceforge.net/DTD/sodipodi-0.dtd"
   xmlns:inkscape="http://www.inkscape.org/namespaces/inkscape"
   id="svg2211"
   sodipodi:version="0.32"
   inkscape:version="0.45"
   width="222"
   height="420"
   version="1.0"
   sodipodi:docbase="C:\Documents and Settings\Compaq_Owner\Desktop"
   sodipodi:docname="GazaStripGovernatesNonLabeled.png.svg"
   inkscape:output_extension="org.inkscape.output.svg.inkscape"
   sodipodi:modified="true">
  <metadata
     id="metadata2216">
    <rdf:RDF>
      <cc:Work
         rdf:about="">
        <dc:format>image/svg+xml</dc:format>
        <dc:type
           rdf:resource="http://purl.org/dc/dcmitype/StillImage" />
      </cc:Work>
    </rdf:RDF>
  </metadata>
  <defs
     id="defs2214" />
  <sodipodi:namedview
     inkscape:window-height="719"
     inkscape:window-width="1024"
     inkscape:pageshadow="2"
     inkscape:pageopacity="0.0"
     guidetolerance="10.0"
     gridtolerance="10.0"
     objecttolerance="10.0"
     borderopacity="1.0"
     bordercolor="#666666"
     pagecolor="#ffffff"
     id="base"
     inkscape:zoom="1.2727922"
     inkscape:cx="271.86242"
     inkscape:cy="248.81708"
     inkscape:window-x="-4"
     inkscape:window-y="-4"
     inkscape:current-layer="svg2211"
     showguides="true"
     inkscape:guide-bbox="true" />
  <path
     style="fill:#c1ecb4;fill-rule:evenodd;stroke:#7f7f7f;stroke-width:2;stroke-linecap:butt;stroke-linejoin:miter;stroke-opacity:1;opacity:1;fill-opacity:1;stroke-miterlimit:4;stroke-dasharray:none"
     d="M 9.4444445,326.94444 L 51.666667,371.11111 L 78.333333,409.44444 L 96.666667,384.72222 L 110,358.05556 L 117.5,344.72222 C 117.5,344.72222 117.22222,330.55556 127.22222,321.94444 C 127.22222,321.94444 133.88889,317.5 136.38889,308.05556 L 120.55556,276.11111 L 118.88889,278.33333 L 106.11111,248.61111 L 111.66667,240.55556 L 134.44444,179.72222 L 164.16667,124.16667 L 174.44444,90.833333 L 188.61111,86.944444 L 208.33333,54.722222 L 211.38889,37.222222 L 182.77778,24.166666 L 137.22222,12.222222 L 131.38889,28.055555 L 125.83333,60.833333 L 113.88889,93.888889 L 101.11111,130.27778 L 83.888889,168.88889 L 72.5,198.88889 L 67.5,215.27778 L 47.222222,251.38889 L 33.333333,280.55556 L 23.888889,304.44444 L 18.055556,314.72222 L 9.4444445,326.94444 z "
     id="path2238"
     sodipodi:nodetypes="ccccccss" />
  <path
     style="fill:none;fill-rule:evenodd;stroke:#7f7f7f;stroke-width:2;stroke-linecap:butt;stroke-linejoin:miter;stroke-opacity:1;opacity:1;stroke-miterlimit:4;stroke-dasharray:none"
     d="M 18.472222,314.16667 C 18.472222,314.16667 25.416667,311.66667 40.972222,319.44444 C 40.972222,319.44444 58.888889,324.30556 66.25,323.88889 C 66.25,323.88889 83.75,325.97222 92.222222,334.72222 C 92.222222,334.72222 102.91667,345.13889 109.58333,359.44444"
     id="path2242"
     sodipodi:nodetypes="cssss" />
  <path
     style="fill:none;fill-rule:evenodd;stroke:#7f7f7f;stroke-width:2;stroke-linecap:butt;stroke-linejoin:miter;stroke-opacity:1;opacity:1;stroke-miterlimit:4;stroke-dasharray:none"
     d="M 111.11111,240.13889 C 111.11111,240.13889 96.805556,242.08333 95.555556,240.97222 C 95.555556,240.97222 89.444445,232.63889 87.5,235.13889 C 87.5,235.13889 84.444445,240 77.777778,238.75 C 77.777778,238.75 75.138889,237.08333 66.25,240.69444 C 66.25,240.69444 62.461099,241.45554 58.925565,230.4561"
     id="path2244"
     sodipodi:nodetypes="csssss" />
  <path
     style="fill:none;fill-rule:evenodd;stroke:#7f7f7f;stroke-width:2;stroke-linecap:butt;stroke-linejoin:miter;stroke-opacity:1;opacity:1;stroke-miterlimit:4;stroke-dasharray:none"
     d="M 126.0025,60.84868 C 126.0025,60.84868 136.01985,63.402121 139.55538,68.901841 C 139.55538,68.901841 147.11749,78.231722 151.83154,78.820977 C 151.83154,78.820977 170.68772,82.749348 175.99102,82.356511 C 175.99102,82.356511 181.0979,79.999489 182.57104,82.945767 C 182.57104,82.945767 182.96388,87.266975 182.57104,88.740114"
     id="path2246"
     sodipodi:nodetypes="csssss" />
  <path
     style="fill:none;fill-rule:evenodd;stroke:#7f7f7f;stroke-width:2;stroke-linecap:butt;stroke-linejoin:miter;stroke-opacity:1;opacity:1;stroke-miterlimit:4;stroke-dasharray:none"
     d="M 134.84134,178.99444 C 134.84134,178.99444 130.71655,178.30697 122.95801,166.12902 C 122.95801,166.12902 115.00306,162.98633 119.71711,158.56691 C 119.71711,158.56691 113.92276,149.92449 105.8696,153.36182 C 105.8696,153.36182 105.37855,147.76389 97.62002,149.72807 C 97.62002,149.72807 95.557625,151.88868 91.825672,151.39763"
     id="path2250"
     sodipodi:nodetypes="csssss" />
</svg>
